<svg viewBox="0 0 16 16" xmlns="http://www.w3.org/2000/svg" class="w4 h4">
  <path
    d="M2 9h5a1 1 0 0 1 1 1v4a1 1 0 0 1-1 1H2a1 1 0 0 1-1-1v-4a1 1 0 0 1 1-1zm7-8h5a1 1 0 0 1 1 1v4a1 1 0 0 1-1 1H9a1 1 0 0 1-1-1V2a1 1 0 0 1 1-1zM4.5 5.772l1.15-1.175a.5.5 0 1 1 .714.699L4.382 7.322a.502.502 0 0 1-.739.03L1.61 5.298a.5.5 0 1 1 .711-.703L3.5 5.785V3A1.5 1.5 0 0 1 5 1.5h1a.5.5 0 0 1 0 1H5a.5.5 0 0 0-.5.5v2.772zm7 4.456l-1.15 1.175a.5.5 0 1 1-.714-.699l1.982-2.026a.502.502 0 0 1 .739-.03l2.032 2.054a.5.5 0 1 1-.711.703l-1.178-1.19V13a1.5 1.5 0 0 1-1.5 1.5h-1a.5.5 0 0 1 0-1h1a.5.5 0 0 0 .5-.5v-2.772z"
    fill="#FFF"
    fill-rule="nonzero"
  ></path>
</svg>
