<svg xmlns="http://www.w3.org/2000/svg" viewBox="0 0 576 452" class="w5 h4">
  <path
    d="M495.3,66.5H81c-9.2,0-16.7-7.5-16.7-16.7V18c0-9.2,7.5-16.7,16.7-16.7h414.2c9.2,0,16.7,7.5,16.7,16.7v31.8  C511.9,59,504.4,66.5,495.3,66.5z"
  ></path>
  <path
    d="M495.3,194.2H306.4c-9.2,0-16.7-7.5-16.7-16.7v-31.8c0-9.2,7.5-16.7,16.7-16.7h188.8c9.2,0,16.7,7.5,16.7,16.7v31.8  C511.9,186.7,504.4,194.2,495.3,194.2z"
  ></path>
  <path
    d="M495.3,322.6H306.4c-9.2,0-16.7-7.5-16.7-16.7v-31.8c0-9.2,7.5-16.7,16.7-16.7h188.8c9.2,0,16.7,7.5,16.7,16.7v31.8  C511.9,315.1,504.4,322.6,495.3,322.6z"
  ></path>
  <path
    d="M495.3,451.6H81c-9.2,0-16.7-7.5-16.7-16.7v-31.8c0-9.2,7.5-16.7,16.7-16.7h414.2c9.2,0,16.7,7.5,16.7,16.7v31.8  C511.9,444.1,504.4,451.6,495.3,451.6z"
  ></path>
  <path
    d="M239.4,129.9H16.5c-9.2,0-16.7,7.5-16.7,16.7v158.3c0,9.2,7.5,16.7,16.7,16.7h222.9c9.2,0,16.7-7.5,16.7-16.7V146.6   C256.1,137.4,248.6,129.9,239.4,129.9z M223.3,289.7H32.2V161.4h191.1V289.7z"
  ></path>
  <circle cx="98.9" cy="207.7" r="17.8"></circle>
  <path
    d="M191.9,220.6l-24.7-25.4c-2.3-2.4-6.1-2.4-8.5-0.1l-54.3,54.3l-17.3-17.3c-2.3-2.3-6.1-2.3-8.4,0L64,246.7v11h127.9V220.6z   "
  ></path>
</svg>
