<svg xmlns="http://www.w3.org/2000/svg" viewBox="0 0 450 450" class="w4 h4">
  <path
    d="M432.3,65.5H18C8.8,65.5,1.3,58,1.3,48.8V17C1.3,7.8,8.8,0.3,18,0.3h414.2c9.2,0,16.7,7.5,16.7,16.7v31.8  C448.9,58,441.4,65.5,432.3,65.5z"
  ></path>
  <path
    d="M143.9,193.2H19.3c-9.2,0-16.7-7.5-16.7-16.7v-31.8c0-9.2,7.5-16.7,16.7-16.7h124.6c9.2,0,16.7,7.5,16.7,16.7v31.8  C160.6,185.7,153.1,193.2,143.9,193.2z"
  ></path>
  <path
    d="M143.9,321.6H19.3c-9.2,0-16.7-7.5-16.7-16.7v-31.8c0-9.2,7.5-16.7,16.7-16.7h124.6c9.2,0,16.7,7.5,16.7,16.7v31.8  C160.6,314.1,153.1,321.6,143.9,321.6z"
  ></path>
  <path
    d="M432.3,450.6H18c-9.2,0-16.7-7.5-16.7-16.7v-31.8c0-9.2,7.5-16.7,16.7-16.7h414.2c9.2,0,16.7,7.5,16.7,16.7v31.8  C448.9,443.1,441.4,450.6,432.3,450.6z"
  ></path>
  <path
    d="M432.1,128.9H209.3c-9.2,0-16.7,7.5-16.7,16.7v158.3c0,9.2,7.5,16.7,16.7,16.7h222.9c9.2,0,16.7-7.5,16.7-16.7V145.6   C448.8,136.4,441.3,128.9,432.1,128.9z M416,288.7H224.9V160.4H416V288.7z"
  ></path>
  <circle cx="291.7" cy="206.7" r="17.8"></circle>
  <path
    d="M384.6,219.6l-24.7-25.4c-2.3-2.4-6.1-2.4-8.5-0.1l-54.3,54.3l-17.3-17.3c-2.3-2.3-6.1-2.3-8.4,0l-14.7,14.7v11h127.9   V219.6z"
  ></path>
</svg>
