<svg xmlns="http://www.w3.org/2000/svg" viewBox="0 0 24 24" version="1.1" id="svg5204"><defs id="defs5188"><style id="style5186">.a{fill:none;stroke:currentColor;stroke-linecap:round;stroke-linejoin:round}</style></defs><path class="a" d="M9 18.5a.25.25 0 1 1-.25.25.25.25 0 0 1 .25-.25" id="path5194" fill="none" stroke="currentColor" stroke-linecap="round" stroke-linejoin="round"/><path class="a" d="M12 18.5a.25.25 0 1 1-.25.25.25.25 0 0 1 .25-.25" id="path5196" fill="none" stroke="currentColor" stroke-linecap="round" stroke-linejoin="round"/><path class="a" d="M15 18.5a.25.25 0 1 1-.25.25.25.25 0 0 1 .25-.25" id="path5198" fill="none" stroke="currentColor" stroke-linecap="round" stroke-linejoin="round"/><path class="a" id="polyline5200" transform="translate(0 1)" fill="none" stroke="currentColor" stroke-linecap="round" stroke-linejoin="round" d="M5.015 8.5l-2 2 2 2"/><path class="a" id="polyline5202" transform="translate(0 1)" fill="none" stroke="currentColor" stroke-linecap="round" stroke-linejoin="round" d="M19.015 8.5l2 2-2 2"/><rect id="rect3819" ry="1" rx="1" height="19" width="23" y="2.5" x=".5" class="a" fill="none" stroke="currentColor" stroke-linecap="round" stroke-linejoin="round" image-rendering="auto"/></svg>