<svg xmlns="http://www.w3.org/2000/svg" viewBox="0 0 24 24"><defs><style>.a{fill:none;stroke:currentColor;stroke-linecap:round;stroke-linejoin:round}</style></defs><rect class="a" x="6" y=".5" width="12" height="9" rx="1" ry="1"/><path class="a" d="M6.336.752L11.4 4.55a1 1 0 0 0 1.2 0l5.064-3.8M12 14.5v9m-3-11v7m6-7v7M18 3l3.553-1.776A1 1 0 0 1 23 2.118v.705a1 1 0 0 1-.629.928L20.5 4.5l.62.414a1 1 0 0 1 .246 1.432L20.8 7.1a1 1 0 0 1-.8.4M6 3L2.447 1.224A1 1 0 0 0 1 2.118v.705a1 1 0 0 0 .629.928L3.5 4.5l-.62.414a1 1 0 0 0-.246 1.432L3.2 7.1a1 1 0 0 0 .8.4"/></svg>