<svg xmlns="http://www.w3.org/2000/svg" viewBox="0 0 448 452" class="w4 h4">
  <path
    d="M431.3,66.5H17C7.8,66.5,0.3,59,0.3,49.8V18C0.3,8.8,7.8,1.3,17,1.3h414.2c9.2,0,16.7,7.5,16.7,16.7v31.8  C447.9,59,440.4,66.5,431.3,66.5z"
  ></path>
  <path
    d="M431.3,194.2H306.6c-9.2,0-16.7-7.5-16.7-16.7v-31.8c0-9.2,7.5-16.7,16.7-16.7h124.6c9.2,0,16.7,7.5,16.7,16.7v31.8  C447.9,186.7,440.4,194.2,431.3,194.2z"
  ></path>
  <path
    d="M431.3,322.6H306.6c-9.2,0-16.7-7.5-16.7-16.7v-31.8c0-9.2,7.5-16.7,16.7-16.7h124.6c9.2,0,16.7,7.5,16.7,16.7v31.8  C447.9,315.1,440.4,322.6,431.3,322.6z"
  ></path>
  <path
    d="M431.3,451.6H17c-9.2,0-16.7-7.5-16.7-16.7v-31.8c0-9.2,7.5-16.7,16.7-16.7h414.2c9.2,0,16.7,7.5,16.7,16.7v31.8  C447.9,444.1,440.4,451.6,431.3,451.6z"
  ></path>
  <path
    d="M239.6,129.9H16.7c-9.2,0-16.7,7.5-16.7,16.7v158.3c0,9.2,7.5,16.7,16.7,16.7h222.9c9.2,0,16.7-7.5,16.7-16.7V146.6   C256.3,137.4,248.8,129.9,239.6,129.9z M223.5,289.7H32.4V161.4h191.1V289.7z"
  ></path>
  <circle cx="99.1" cy="207.7" r="17.8"></circle>
  <path
    d="M192.1,220.6l-24.7-25.4c-2.3-2.4-6.1-2.4-8.5-0.1l-54.3,54.3l-17.3-17.3c-2.3-2.3-6.1-2.3-8.4,0l-14.7,14.7v11h127.9   V220.6z"
  ></path>
</svg>
